<svg width="20" height="20" viewBox="0 0 20 20" fill="none" xmlns="http://www.w3.org/2000/svg">
<path fill-rule="evenodd" clip-rule="evenodd" d="M13.024 20C14.277 20 15.352 19.934 16.251 19.735C17.161 19.532 17.949 19.18 18.565 18.565C19.18 17.949 19.532 17.161 19.735 16.251C19.935 15.352 20 14.277 20 13.024V10C20 9.46957 19.7893 8.96086 19.4142 8.58579C19.0391 8.21071 18.5304 8 18 8H10C9.46957 8 8.96086 8.21071 8.58579 8.58579C8.21071 8.96086 8 9.46957 8 10V18C8 18.5304 8.21071 19.0391 8.58579 19.4142C8.96086 19.7893 9.46957 20 10 20H13.024ZM0 13.024C0 14.277 0.066 15.352 0.266 16.251C0.468 17.161 0.82 17.949 1.436 18.565C2.051 19.18 2.839 19.532 3.749 19.735C3.836 19.754 3.924 19.772 4.012 19.789C5.096 19.999 6 19.081 6 17.976V10C6 9.46957 5.78929 8.96086 5.41421 8.58579C5.03914 8.21071 4.53043 8 4 8H2C1.46957 8 0.960859 8.21071 0.585786 8.58579C0.210714 8.96086 0 9.46957 0 10V13.024ZM6.976 0C5.723 0 4.648 0.066 3.749 0.266C2.839 0.468 2.051 0.82 1.435 1.436C0.82 2.051 0.468 2.839 0.265 3.749C0.249 3.824 0.233 3.899 0.219 3.974C0.0040001 5.073 0.939 6 2.059 6H17.976C19.081 6 19.999 5.096 19.789 4.012C19.7719 3.92409 19.7535 3.83641 19.734 3.749C19.532 2.839 19.18 2.051 18.564 1.435C17.949 0.82 17.161 0.468 16.251 0.265C15.352 0.0650001 14.277 0 13.024 0H6.976Z" fill="white"/>
</svg>
