<svg width="30" height="29" viewBox="0 0 30 29" fill="none" xmlns="http://www.w3.org/2000/svg">
<path d="M28.1059 24.0187L25.6997 24.5875C25.1601 24.7188 24.7372 25.1271 24.6205 25.6667L24.1101 27.8104C23.833 28.9771 22.3455 29.3417 21.5726 28.4229L17.2122 23.4062C17.131 23.3128 17.075 23.2003 17.0494 23.0792C17.0238 22.9581 17.0296 22.8325 17.0661 22.7143C17.1026 22.596 17.1686 22.489 17.258 22.4034C17.3473 22.3178 17.457 22.2564 17.5767 22.225C20.1654 21.5957 22.4821 20.1484 24.183 18.0979C24.4601 17.7625 24.9559 17.7187 25.2622 18.025L28.4997 21.2625C29.608 22.3708 29.2142 23.7562 28.1059 24.0187ZM1.05383 24.0187L3.46008 24.5875C3.99966 24.7188 4.42258 25.1271 4.53924 25.6667L5.04966 27.8104C5.32674 28.9771 6.81424 29.3417 7.58716 28.4229L11.9476 23.4062C12.2976 22.9979 12.108 22.3563 11.583 22.225C8.99432 21.5957 6.6776 20.1484 4.97674 18.0979C4.91377 18.0177 4.83464 17.9516 4.74448 17.9039C4.65432 17.8563 4.55515 17.8281 4.45339 17.8212C4.35164 17.8143 4.24958 17.8289 4.15382 17.864C4.05807 17.8991 3.97077 17.954 3.89758 18.025L0.660076 21.2625C-0.448257 22.3708 -0.0545071 23.7562 1.05383 24.0187ZM14.6163 0C8.97258 0 4.40799 4.56458 4.40799 10.2083C4.40799 12.3229 5.03508 14.2625 6.11424 15.8813C6.90502 17.0607 7.93365 18.0617 9.13412 18.8202C10.3346 19.5786 11.6804 20.0777 13.0851 20.2854C13.5809 20.3729 14.0913 20.4167 14.6163 20.4167C15.1413 20.4167 15.6517 20.3729 16.1476 20.2854C19.0497 19.8625 21.5434 18.2146 23.1184 15.8813C24.238 14.2017 24.832 12.2268 24.8247 10.2083C24.8247 4.56458 20.2601 0 14.6163 0ZM19.0788 9.8875L17.8684 11.0979C17.6642 11.3021 17.5476 11.6958 17.6205 11.9875L17.9705 13.4896C18.2476 14.6708 17.6205 15.1375 16.5705 14.5104L15.1122 13.65C14.9641 13.571 14.7988 13.5296 14.6309 13.5296C14.463 13.5296 14.2978 13.571 14.1497 13.65L12.6913 14.5104C11.6413 15.1229 11.0142 14.6708 11.2913 13.4896L11.6413 11.9875C11.6997 11.7104 11.5976 11.3021 11.3934 11.0979L10.1538 9.8875C9.43924 9.17292 9.67258 8.45833 10.6642 8.29792L12.2247 8.03542C12.4872 7.99167 12.7934 7.75833 12.9101 7.525L13.7705 5.80417C14.2372 4.87083 14.9955 4.87083 15.4622 5.80417L16.3226 7.525C16.4392 7.75833 16.7455 7.99167 17.0226 8.03542L18.583 8.29792C19.5601 8.45833 19.7934 9.17292 19.0788 9.8875Z" fill="white"/>
</svg>
