<svg width="38" height="38" viewBox="0 0 38 38" fill="none" xmlns="http://www.w3.org/2000/svg">
<path fill-rule="evenodd" clip-rule="evenodd" d="M26.6 30.4L35.313 30.4C36.797 30.4 38 29.197 38 27.713C38 27.0004 37.7169 26.3169 37.213 25.813L35.313 23.913C34.6004 23.2004 34.2 22.2338 34.2 21.226V15.1443C34.2 6.78032 27.4197 0 19.0557 0C10.674 0 3.88632 6.80806 3.91148 15.1897L3.92946 21.1805C3.93257 22.2151 3.51364 23.2063 2.76942 23.9251L0.814407 25.8134C0.29394 26.3161 3.94173e-06 27.0087 0 27.7323C0 29.2056 1.19439 30.4 2.66775 30.4H11.4C11.4 34.5974 14.8026 38 19 38C23.1974 38 26.6 34.5974 26.6 30.4ZM33.2977 25.9282L34.9195 27.55L3.11879 27.55L4.74938 25.9751C6.05176 24.7172 6.78489 22.9826 6.77945 21.1719L6.76147 15.1812C6.74104 8.37685 12.2513 2.85 19.0557 2.85C25.8456 2.85 31.35 8.35433 31.35 15.1443L31.35 21.226C31.35 22.9897 32.0506 24.6811 33.2977 25.9282ZM23.75 30.4H14.25C14.25 33.0234 16.3767 35.15 19 35.15C21.6234 35.15 23.75 33.0234 23.75 30.4Z" fill="#35A29F"/>
</svg>
