<svg width="29" height="28" viewBox="0 0 29 28" fill="none" xmlns="http://www.w3.org/2000/svg">
<path d="M14.7281 0C6.86611 0 0.485352 6.272 0.485352 14C0.485352 21.728 6.86611 28 14.7281 28C22.5901 28 28.9709 21.728 28.9709 14C28.9709 6.272 22.5901 0 14.7281 0ZM14.7281 4.2C17.0924 4.2 19.001 6.076 19.001 8.4C19.001 10.724 17.0924 12.6 14.7281 12.6C12.3638 12.6 10.4553 10.724 10.4553 8.4C10.4553 6.076 12.3638 4.2 14.7281 4.2ZM14.7281 24.08C11.1674 24.08 8.01978 22.288 6.18246 19.572C6.22519 16.786 11.8796 15.26 14.7281 15.26C17.5624 15.26 23.2311 16.786 23.2738 19.572C21.4365 22.288 18.2888 24.08 14.7281 24.08Z" fill="#35A29F" fill-opacity="0.6"/>
</svg>
