<svg width="216" height="216" viewBox="0 0 216 216" fill="none" xmlns="http://www.w3.org/2000/svg">
<path d="M108 0C86.6397 0 65.759 6.33409 47.9985 18.2013C30.238 30.0685 16.3953 46.9358 8.22106 66.6702C0.0467949 86.4046 -2.09197 108.12 2.07524 129.07C6.24244 150.02 16.5284 169.263 31.6325 184.368C46.7366 199.472 65.9803 209.758 86.9303 213.925C107.88 218.092 129.595 215.953 149.33 207.779C169.064 199.605 185.932 185.762 197.799 168.002C209.666 150.241 216 129.36 216 108C215.968 79.3664 204.58 51.9146 184.333 31.6675C164.085 11.4205 136.634 0.0317622 108 0ZM108 192C91.3864 192 75.1459 187.073 61.3321 177.843C47.5184 168.613 36.7519 155.494 30.3942 140.145C24.0364 124.796 22.3729 107.907 25.6141 91.6124C28.8552 75.318 36.8555 60.3506 48.6031 48.603C60.3507 36.8554 75.3181 28.8552 91.6125 25.614C107.907 22.3729 124.796 24.0364 140.145 30.3941C155.494 36.7519 168.613 47.5184 177.843 61.3321C187.074 75.1458 192 91.3864 192 108C191.976 130.271 183.119 151.623 167.371 167.371C151.623 183.119 130.271 191.976 108 192ZM160 108C160 111.183 158.736 114.235 156.485 116.485C154.235 118.736 151.183 120 148 120H120V148C120 151.183 118.736 154.235 116.485 156.485C114.235 158.736 111.183 160 108 160C104.817 160 101.765 158.736 99.5148 156.485C97.2643 154.235 96 151.183 96 148V120H68C64.8174 120 61.7652 118.736 59.5148 116.485C57.2643 114.235 56 111.183 56 108C56 104.817 57.2643 101.765 59.5148 99.5147C61.7652 97.2643 64.8174 96 68 96H96V68C96 64.8174 97.2643 61.7652 99.5148 59.5147C101.765 57.2643 104.817 56 108 56C111.183 56 114.235 57.2643 116.485 59.5147C118.736 61.7652 120 64.8174 120 68V96H148C151.183 96 154.235 97.2643 156.485 99.5147C158.736 101.765 160 104.817 160 108Z" fill="#35A29F"/>
</svg>
