<svg width="32" height="32" viewBox="0 0 32 32" fill="none" xmlns="http://www.w3.org/2000/svg">
<path d="M4.1764 2.164C2.9884 1.57 1.6704 2.7 2.0774 3.965L4.9354 12.848C4.99158 13.0226 5.09473 13.1784 5.23353 13.2984C5.37234 13.4183 5.54146 13.4977 5.7224 13.528L17.5914 15.507C18.1484 15.6 18.1484 16.4 17.5914 16.493L5.7234 18.471C5.54228 18.5011 5.37295 18.5805 5.23395 18.7004C5.09496 18.8203 4.99166 18.9762 4.9354 19.151L2.0774 28.037C1.6704 29.302 2.9874 30.432 4.1764 29.838L29.1704 17.343C30.2764 16.79 30.2764 15.213 29.1704 14.659L4.1764 2.164Z" fill="white"/>
</svg>
