<svg width="24" height="24" viewBox="0 0 24 24" fill="none" xmlns="http://www.w3.org/2000/svg">
<g clip-path="url(#clip0_73_1159)">
<path fill-rule="evenodd" clip-rule="evenodd" d="M11.2931 8.29279C11.4806 8.10532 11.7349 8 12.0001 8C12.2652 8 12.5195 8.10532 12.7071 8.29279L18.3641 13.9498C18.5462 14.1384 18.647 14.391 18.6447 14.6532C18.6425 14.9154 18.5373 15.1662 18.3519 15.3516C18.1665 15.537 17.9157 15.6422 17.6535 15.6445C17.3913 15.6467 17.1387 15.5459 16.9501 15.3638L12.0001 10.4138L7.05006 15.3638C6.86146 15.5459 6.60885 15.6467 6.34666 15.6445C6.08446 15.6422 5.83365 15.537 5.64824 15.3516C5.46283 15.1662 5.35766 14.9154 5.35538 14.6532C5.35311 14.391 5.4539 14.1384 5.63606 13.9498L11.2931 8.29279Z" fill="white"/>
</g>
<defs>
<clipPath id="clip0_73_1159">
<rect width="24" height="24" fill="white"/>
</clipPath>
</defs>
</svg>
